<svg viewBox="0 0 401 351" fill="none" xmlns="http://www.w3.org/2000/svg">
<path d="M33 258.523H94.7987" stroke="#16161C" stroke-miterlimit="10"/>
<path d="M63.8994 227.624V289.423" stroke="#16161C" stroke-miterlimit="10"/>
<path d="M63.8994 289.423C63.8994 289.423 74.1992 275.771 74.1992 258.523C74.1992 241.276 63.8994 227.624 63.8994 227.624" stroke="#16161C" stroke-miterlimit="10"/>
<path d="M63.8994 289.423C80.9646 289.423 94.7987 275.589 94.7987 258.523C94.7987 241.458 80.9646 227.624 63.8994 227.624C46.8341 227.624 33 241.458 33 258.523C33 275.589 46.8341 289.423 63.8994 289.423Z" stroke="#16161C" stroke-miterlimit="10"/>
<path d="M63.8994 289.423C63.8994 289.423 84.499 282.536 84.499 258.523C84.499 234.511 63.8994 227.624 63.8994 227.624" stroke="#16161C" stroke-miterlimit="10"/>
<path d="M63.8994 289.423C63.8994 289.423 53.5996 275.771 53.5996 258.523C53.5996 241.276 63.8994 227.624 63.8994 227.624" stroke="#16161C" stroke-miterlimit="10"/>
<path d="M63.8994 289.423C63.8994 289.423 43.2998 282.536 43.2998 258.523C43.2998 234.511 63.8994 227.624 63.8994 227.624" stroke="#16161C" stroke-miterlimit="10"/>
<path d="M36.2705 272.358C39.5616 270.936 48.3987 267.929 63.8991 267.929C79.3996 267.929 88.2367 270.936 91.5277 272.358" stroke="#16161C" stroke-miterlimit="10"/>
<path d="M43.5635 281.784C46.7733 280.281 53.1116 278.229 63.899 278.229C74.605 278.229 80.923 280.24 84.1532 281.744" stroke="#16161C" stroke-miterlimit="10"/>
<path d="M36.2705 244.689C39.5616 246.111 48.3987 249.118 63.8991 249.118C79.3996 249.118 88.2367 246.111 91.5277 244.689" stroke="#16161C" stroke-miterlimit="10"/>
<path d="M43.5635 235.263C46.7733 236.766 53.1116 238.818 63.899 238.818C74.605 238.818 80.923 236.807 84.1532 235.303" stroke="#16161C" stroke-miterlimit="10"/>
<path d="M33 258.523H94.7987" stroke="#16161C" stroke-miterlimit="10"/>
<path d="M63.8994 227.624V289.423" stroke="#16161C" stroke-miterlimit="10"/>
<path d="M63.8994 289.423C63.8994 289.423 74.1992 275.771 74.1992 258.523C74.1992 241.276 63.8994 227.624 63.8994 227.624" stroke="#16161C" stroke-miterlimit="10"/>
<path d="M63.8994 289.423C80.9646 289.423 94.7987 275.589 94.7987 258.523C94.7987 241.458 80.9646 227.624 63.8994 227.624C46.8341 227.624 33 241.458 33 258.523C33 275.589 46.8341 289.423 63.8994 289.423Z" stroke="#16161C" stroke-miterlimit="10"/>
<path d="M63.8994 289.423C63.8994 289.423 84.499 282.536 84.499 258.523C84.499 234.511 63.8994 227.624 63.8994 227.624" stroke="#16161C" stroke-miterlimit="10"/>
<path d="M63.8994 289.423C63.8994 289.423 53.5996 275.771 53.5996 258.523C53.5996 241.276 63.8994 227.624 63.8994 227.624" stroke="#16161C" stroke-miterlimit="10"/>
<path d="M63.8994 289.423C63.8994 289.423 43.2998 282.536 43.2998 258.523C43.2998 234.511 63.8994 227.624 63.8994 227.624" stroke="#16161C" stroke-miterlimit="10"/>
<path d="M36.2705 272.358C39.5616 270.936 48.3987 267.929 63.8991 267.929C79.3996 267.929 88.2367 270.936 91.5277 272.358" stroke="#16161C" stroke-miterlimit="10"/>
<path d="M43.5635 281.784C46.7733 280.281 53.1116 278.229 63.899 278.229C74.605 278.229 80.923 280.24 84.1532 281.744" stroke="#16161C" stroke-miterlimit="10"/>
<path d="M36.2705 244.689C39.5616 246.111 48.3987 249.118 63.8991 249.118C79.3996 249.118 88.2367 246.111 91.5277 244.689" stroke="#16161C" stroke-miterlimit="10"/>
<path d="M43.5635 235.263C46.7733 236.766 53.1116 238.818 63.899 238.818C74.605 238.818 80.923 236.807 84.1532 235.303" stroke="#16161C" stroke-miterlimit="10"/>
<path d="M325.864 306C342.929 306 356.764 292.166 356.764 275.101C356.764 258.036 342.929 244.202 325.864 244.202C308.799 244.202 294.965 258.036 294.965 275.101C294.965 292.166 308.799 306 325.864 306Z" stroke="#16161C" stroke-miterlimit="10"/>
<path d="M346.504 282.292C343.518 290.824 335.392 296.96 325.864 296.96C316.336 296.96 308.21 290.824 305.224 282.292" stroke="#16161C" stroke-miterlimit="10"/>
<path d="M344.473 281.906C344.473 281.906 346.199 282.82 348.19 282.658" stroke="#16161C" stroke-miterlimit="10"/>
<path d="M307.073 281.906C307.073 281.906 305.346 282.82 303.355 282.658" stroke="#16161C" stroke-miterlimit="10"/>
<path d="M333.584 276.908C336.321 276.908 338.541 272.233 338.541 266.466C338.541 260.699 336.321 256.024 333.584 256.024C330.846 256.024 328.627 260.699 328.627 266.466C328.627 272.233 330.846 276.908 333.584 276.908Z" fill="#16161C"/>
<path d="M318.144 276.908C320.882 276.908 323.101 272.233 323.101 266.466C323.101 260.699 320.882 256.024 318.144 256.024C315.407 256.024 313.188 260.699 313.188 266.466C313.188 272.233 315.407 276.908 318.144 276.908Z" fill="#16161C"/>
<path d="M91.874 94.9868V151.727C91.874 156.034 95.3682 159.528 99.675 159.528H149.447C153.754 159.528 157.248 163.022 157.248 167.329V194.734C157.248 199.041 160.742 202.535 165.049 202.535H218.011C222.318 202.535 225.812 206.029 225.812 210.336V230.001C225.812 234.308 229.306 237.802 233.613 237.802H301.242" stroke="#16161C" stroke-miterlimit="10"/>
<path d="M289.256 127.43V209.523C289.256 213.83 285.762 217.324 281.455 217.324H223.862C219.555 217.324 216.061 220.818 216.061 225.125V248.914C216.061 253.221 212.566 256.715 208.26 256.715H111.6C107.293 256.715 103.799 253.221 103.799 248.914V202.047C103.799 197.74 100.305 194.246 95.9981 194.246H58.3135" stroke="#16161C" stroke-miterlimit="10"/>
<path d="M128.36 123.205V219.844C128.36 224.151 131.855 227.645 136.161 227.645H189.428C193.735 227.645 197.229 224.151 197.229 219.844V191.91C197.229 187.604 200.723 184.109 205.03 184.109H319.201" stroke="#16161C" stroke-miterlimit="10"/>
<path d="M289.256 129.766C290.546 129.766 291.592 128.72 291.592 127.43C291.592 126.139 290.546 125.093 289.256 125.093C287.966 125.093 286.92 126.139 286.92 127.43C286.92 128.72 287.966 129.766 289.256 129.766Z" fill="#16161C"/>
<path d="M319.201 186.465C320.491 186.465 321.537 185.419 321.537 184.129C321.537 182.839 320.491 181.793 319.201 181.793C317.91 181.793 316.864 182.839 316.864 184.129C316.864 185.419 317.91 186.465 319.201 186.465Z" fill="#16161C"/>
<path d="M301.222 240.118C302.512 240.118 303.558 239.072 303.558 237.782C303.558 236.491 302.512 235.445 301.222 235.445C299.932 235.445 298.886 236.491 298.886 237.782C298.886 239.072 299.932 240.118 301.222 240.118Z" fill="#16161C"/>
<path d="M58.3128 196.583C59.6031 196.583 60.649 195.537 60.649 194.246C60.649 192.956 59.6031 191.91 58.3128 191.91C57.0225 191.91 55.9766 192.956 55.9766 194.246C55.9766 195.537 57.0225 196.583 58.3128 196.583Z" fill="#16161C"/>
<path d="M128.36 125.54C129.65 125.54 130.696 124.494 130.696 123.204C130.696 121.914 129.65 120.868 128.36 120.868C127.069 120.868 126.023 121.914 126.023 123.204C126.023 124.494 127.069 125.54 128.36 125.54Z" fill="#16161C"/>
<path d="M91.8734 97.3229C93.1636 97.3229 94.2096 96.2769 94.2096 94.9866C94.2096 93.6964 93.1636 92.6504 91.8734 92.6504C90.5831 92.6504 89.5371 93.6964 89.5371 94.9866C89.5371 96.2769 90.5831 97.3229 91.8734 97.3229Z" fill="#16161C"/>
<path d="M212.769 165.378C234.85 165.378 252.75 147.479 252.75 125.398C252.75 103.318 234.85 85.418 212.769 85.418C190.689 85.418 172.789 103.318 172.789 125.398C172.789 147.479 190.689 165.378 212.769 165.378Z" stroke="#16161C" stroke-miterlimit="10"/>
<path d="M212.769 176.816C241.166 176.816 264.187 153.795 264.187 125.398C264.187 97.0009 241.166 73.9805 212.769 73.9805C184.372 73.9805 161.352 97.0009 161.352 125.398C161.352 153.795 184.372 176.816 212.769 176.816Z" stroke="#16161C" stroke-miterlimit="10"/>
<path d="M195.339 142.829L230.22 107.948" stroke="#16161C" stroke-miterlimit="10"/>
<path d="M204.583 141.772L227.336 119.019" stroke="#16161C" stroke-miterlimit="10"/>
<path d="M179.188 164.322L164.44 179.071L159.097 173.728L173.845 158.979" stroke="#16161C" stroke-miterlimit="10"/>
<path d="M156.639 171.25L166.898 181.509L125.678 222.728C122.834 225.572 118.243 225.572 115.419 222.728C112.575 219.884 112.575 215.293 115.419 212.469L156.639 171.25Z" fill="white" stroke="#16161C" stroke-miterlimit="10"/>
<path d="M154.12 71.5835V91.5533H155.217V71.5835C155.034 71.6038 154.851 71.6241 154.669 71.6241C154.486 71.6038 154.303 71.6038 154.12 71.5835Z" fill="#16161C"/>
<path d="M155.217 62.9901V43H154.12V62.9698C154.303 62.9495 154.486 62.9292 154.669 62.9292C154.851 62.9495 155.034 62.9495 155.217 62.9901Z" fill="#16161C"/>
<path d="M158.977 67.8255H178.946V66.7285H158.977C158.997 66.9114 159.017 67.0942 159.017 67.277C158.997 67.4599 158.997 67.6427 158.977 67.8255Z" fill="#16161C"/>
<path d="M150.362 66.7285H130.393V67.8255H150.362C150.342 67.6427 150.322 67.4599 150.322 67.277C150.342 67.0942 150.342 66.9114 150.362 66.7285Z" fill="#16161C"/>
<path d="M152.007 63.8436L137.888 49.7246L137.116 50.4966L151.235 64.6156C151.459 64.3312 151.723 64.0874 152.007 63.8436Z" fill="#16161C"/>
<path d="M157.331 70.71L171.45 84.829L172.222 84.057L158.103 69.938C157.88 70.2224 157.615 70.4865 157.331 70.71Z" fill="#16161C"/>
<path d="M158.103 64.6356L172.222 50.5166L171.45 49.7446L157.331 63.8637C157.615 64.0871 157.88 64.3309 158.103 64.6356Z" fill="#16161C"/>
<path d="M151.235 69.938L137.116 84.057L137.888 84.829L152.007 70.71C151.723 70.4865 151.459 70.2224 151.235 69.938Z" fill="#16161C"/>
<path d="M61.7465 139.781L64.5906 147.196L72.0056 150.04L64.5906 152.905L61.7465 160.3L58.882 152.905L51.4873 150.04L58.9023 147.196L61.7465 139.781Z" fill="#16161C"/>
<path d="M230.22 248.265L233.064 255.68L240.479 258.524L233.064 261.368L230.22 268.783L227.356 261.388L219.961 258.524L227.356 255.68L230.22 248.265Z" fill="#16161C"/>
<path d="M274.466 70.1006L277.31 77.5156L284.725 80.3597L277.31 83.2039L274.466 90.6189L271.602 83.2039L264.207 80.3597L271.602 77.5156L274.466 70.1006Z" fill="#16161C"/>
<path d="M338.662 103.255H337.301V163.449H338.662V103.255Z" fill="#16161C"/>
<path d="M368.087 134.049V132.688H307.893V134.049H368.087Z" fill="#16161C"/>
<path d="M317.167 111.591L316.204 112.554L358.767 155.117L359.73 154.154L317.167 111.591Z" fill="#16161C"/>
<path d="M359.752 112.554L358.789 111.591L316.226 154.154L317.188 155.117L359.752 112.554Z" fill="#16161C"/>
<path d="M337.972 138.746C340.946 138.746 343.356 136.335 343.356 133.362C343.356 130.389 340.946 127.979 337.972 127.979C334.999 127.979 332.589 130.389 332.589 133.362C332.589 136.335 334.999 138.746 337.972 138.746Z" fill="#16161C"/>
</svg>
